<?xml version="1.0" encoding="UTF-8"?>
<!DOCTYPE svg PUBLIC "-//W3C//DTD SVG 1.1//EN" "http://www.w3.org/Graphics/SVG/1.1/DTD/svg11.dtd">
<svg xmlns="http://www.w3.org/2000/svg" version="1.1" width="199px" height="34px" style="shape-rendering:geometricPrecision; text-rendering:geometricPrecision; image-rendering:optimizeQuality; fill-rule:evenodd; clip-rule:evenodd" xmlns:xlink="http://www.w3.org/1999/xlink">
<g><path style="opacity:1" fill="#0b0604" d="M -0.5,-0.5 C 31.5,-0.5 63.5,-0.5 95.5,-0.5C 95.5,0.166667 95.1667,0.5 94.5,0.5C 89.5,0.5 84.5,0.5 79.5,0.5C 79.5,2.16667 79.5,3.83333 79.5,5.5C 81.1667,5.5 82.8333,5.5 84.5,5.5C 84.5,14.8333 84.5,24.1667 84.5,33.5C 81.8333,33.5 79.1667,33.5 76.5,33.5C 76.5,22.5 76.5,11.5 76.5,0.5C 74.8333,0.5 73.1667,0.5 71.5,0.5C 71.8229,6.68996 71.4896,12.69 70.5,18.5C 69.4055,12.561 67.7389,6.89433 65.5,1.5C 63.7354,0.538616 61.7354,0.205283 59.5,0.5C 59.5,11.5 59.5,22.5 59.5,33.5C 58.5,33.5 57.5,33.5 56.5,33.5C 56.5,31.8333 56.5,30.1667 56.5,28.5C 54.1667,28.5 51.8333,28.5 49.5,28.5C 49.5,25.1667 49.5,21.8333 49.5,18.5C 51.5,18.5 53.5,18.5 55.5,18.5C 55.5,17.1667 55.5,15.8333 55.5,14.5C 53.5,14.5 51.5,14.5 49.5,14.5C 49.5,11.5 49.5,8.5 49.5,5.5C 51.8333,5.5 54.1667,5.5 56.5,5.5C 56.5,3.83333 56.5,2.16667 56.5,0.5C 52.5,0.5 48.5,0.5 44.5,0.5C 43.5054,11.3206 43.1721,22.3206 43.5,33.5C 42.8333,33.5 42.1667,33.5 41.5,33.5C 41.5,31.8333 41.5,30.1667 41.5,28.5C 39.1667,28.5 36.8333,28.5 34.5,28.5C 34.5,19.1667 34.5,9.83333 34.5,0.5C 32.8333,0.5 31.1667,0.5 29.5,0.5C 28.5054,11.3206 28.1721,22.3206 28.5,33.5C 27.1667,33.5 25.8333,33.5 24.5,33.5C 24.5,22.5 24.5,11.5 24.5,0.5C 22.8333,0.5 21.1667,0.5 19.5,0.5C 19.5,11.5 19.5,22.5 19.5,33.5C 16.8333,33.5 14.1667,33.5 11.5,33.5C 12.6883,32.6364 13.8549,31.6364 15,30.5C 15.6667,27.5 15.6667,24.5 15,21.5C 12.7046,18.2026 10.038,15.2026 7,12.5C 5.36946,10.0446 5.20279,7.54459 6.5,5C 7.5,4.33333 8.5,4.33333 9.5,5C 10.4061,6.69946 10.7394,8.5328 10.5,10.5C 12.1667,10.5 13.8333,10.5 15.5,10.5C 16.1607,1.67152 12.1607,-1.49515 3.5,1C 0.681861,4.33791 -0.151473,8.17124 1,12.5C 3.62979,16.1317 6.62979,19.465 10,22.5C 10.4955,24.4727 10.6621,26.4727 10.5,28.5C 6.5,29.1667 4.83333,27.5 5.5,23.5C 3.83333,23.5 2.16667,23.5 0.5,23.5C -0.250597,27.8196 1.08274,31.1529 4.5,33.5C 2.83333,33.5 1.16667,33.5 -0.5,33.5C -0.5,22.1667 -0.5,10.8333 -0.5,-0.5 Z"/></g>
<g><path style="opacity:1" fill="#070607" d="M 95.5,-0.5 C 110.833,-0.5 126.167,-0.5 141.5,-0.5C 141.5,-0.166667 141.5,0.166667 141.5,0.5C 136.561,-0.648101 133.061,1.01857 131,5.5C 130.333,12.8333 130.333,20.1667 131,27.5C 131.564,29.8867 132.73,31.8867 134.5,33.5C 132.167,33.5 129.833,33.5 127.5,33.5C 127.5,31.8333 127.5,30.1667 127.5,28.5C 125.167,28.5 122.833,28.5 120.5,28.5C 120.5,25.1667 120.5,21.8333 120.5,18.5C 122.5,18.5 124.5,18.5 126.5,18.5C 126.5,17.1667 126.5,15.8333 126.5,14.5C 124.5,14.5 122.5,14.5 120.5,14.5C 120.5,11.5 120.5,8.5 120.5,5.5C 122.833,5.5 125.167,5.5 127.5,5.5C 127.5,3.83333 127.5,2.16667 127.5,0.5C 123.5,0.5 119.5,0.5 115.5,0.5C 115.5,11.5 115.5,22.5 115.5,33.5C 112.833,33.5 110.167,33.5 107.5,33.5C 111.241,30.444 112.407,26.444 111,21.5C 108.37,17.8683 105.37,14.535 102,11.5C 101.242,9.23052 101.409,7.06385 102.5,5C 103.5,4.33333 104.5,4.33333 105.5,5C 106.406,6.69946 106.739,8.5328 106.5,10.5C 108.167,10.5 109.833,10.5 111.5,10.5C 112.161,1.67152 108.161,-1.49515 99.5,1C 96.6819,4.33791 95.8485,8.17124 97,12.5C 99.6298,16.1317 102.63,19.465 106,22.5C 106.495,24.4727 106.662,26.4727 106.5,28.5C 104.833,28.5 103.167,28.5 101.5,28.5C 101.5,26.8333 101.5,25.1667 101.5,23.5C 99.8333,23.5 98.1667,23.5 96.5,23.5C 95.7494,27.8196 97.0827,31.1529 100.5,33.5C 96.8333,33.5 93.1667,33.5 89.5,33.5C 89.5,24.1667 89.5,14.8333 89.5,5.5C 91.1667,5.5 92.8333,5.5 94.5,5.5C 94.5,3.83333 94.5,2.16667 94.5,0.5C 95.1667,0.5 95.5,0.166667 95.5,-0.5 Z"/></g>
<g><path style="opacity:1" fill="#070607" d="M 141.5,0.5 C 141.5,0.166667 141.5,-0.166667 141.5,-0.5C 160.5,-0.5 179.5,-0.5 198.5,-0.5C 198.5,-0.166667 198.5,0.166667 198.5,0.5C 193.5,0.5 188.5,0.5 183.5,0.5C 183.5,2.16667 183.5,3.83333 183.5,5.5C 185.167,5.5 186.833,5.5 188.5,5.5C 188.5,14.8333 188.5,24.1667 188.5,33.5C 186.167,33.5 183.833,33.5 181.5,33.5C 181.5,31.8333 181.5,30.1667 181.5,28.5C 179.167,28.5 176.833,28.5 174.5,28.5C 174.5,25.1667 174.5,21.8333 174.5,18.5C 176.5,18.5 178.5,18.5 180.5,18.5C 180.5,17.1667 180.5,15.8333 180.5,14.5C 178.5,14.5 176.5,14.5 174.5,14.5C 174.5,11.5 174.5,8.5 174.5,5.5C 176.833,5.5 179.167,5.5 181.5,5.5C 181.5,3.83333 181.5,2.16667 181.5,0.5C 177.5,0.5 173.5,0.5 169.5,0.5C 168.505,11.3206 168.172,22.3206 168.5,33.5C 167.5,33.5 166.5,33.5 165.5,33.5C 164.612,28.9957 163.612,24.4957 162.5,20C 164.472,14.7194 164.972,9.21941 164,3.5C 163.097,2.29857 161.931,1.46524 160.5,1C 157.183,0.501655 153.85,0.334989 150.5,0.5C 149.505,11.3206 149.172,22.3206 149.5,33.5C 147.167,33.5 144.833,33.5 142.5,33.5C 145.78,30.5954 147.113,26.9288 146.5,22.5C 144.833,22.5 143.167,22.5 141.5,22.5C 142.592,27.1225 140.925,28.9558 136.5,28C 135.354,20.9138 135.188,13.7471 136,6.5C 137.396,4.47316 139.062,4.13983 141,5.5C 141.497,7.80982 141.663,10.1432 141.5,12.5C 143.167,12.5 144.833,12.5 146.5,12.5C 147.525,7.23256 145.858,3.23256 141.5,0.5 Z"/></g>
<g><path style="opacity:1" fill="#d01b27" d="M 24.5,33.5 C 22.8333,33.5 21.1667,33.5 19.5,33.5C 19.5,22.5 19.5,11.5 19.5,0.5C 21.1667,0.5 22.8333,0.5 24.5,0.5C 24.5,11.5 24.5,22.5 24.5,33.5 Z"/></g>
<g><path style="opacity:1" fill="#7a1218" d="M 29.5,0.5 C 29.5,11.1667 29.5,21.8333 29.5,32.5C 33.1667,32.5 36.8333,32.5 40.5,32.5C 40.5,31.5 40.5,30.5 40.5,29.5C 38.2646,29.7947 36.2646,29.4614 34.5,28.5C 36.8333,28.5 39.1667,28.5 41.5,28.5C 41.5,30.1667 41.5,31.8333 41.5,33.5C 37.1667,33.5 32.8333,33.5 28.5,33.5C 28.1721,22.3206 28.5054,11.3206 29.5,0.5 Z"/></g>
<g><path style="opacity:1" fill="#99161e" d="M 65.5,1.5 C 63.8333,1.5 62.1667,1.5 60.5,1.5C 60.5,11.8333 60.5,22.1667 60.5,32.5C 61.8333,32.5 63.1667,32.5 64.5,32.5C 64.5,32.8333 64.5,33.1667 64.5,33.5C 62.8333,33.5 61.1667,33.5 59.5,33.5C 59.5,22.5 59.5,11.5 59.5,0.5C 61.7354,0.205283 63.7354,0.538616 65.5,1.5 Z"/></g>
<g><path style="opacity:1" fill="#cd1a27" d="M 94.5,0.5 C 94.5,2.16667 94.5,3.83333 94.5,5.5C 92.8333,5.5 91.1667,5.5 89.5,5.5C 89.5,14.8333 89.5,24.1667 89.5,33.5C 87.8333,33.5 86.1667,33.5 84.5,33.5C 84.5,24.1667 84.5,14.8333 84.5,5.5C 82.8333,5.5 81.1667,5.5 79.5,5.5C 79.5,3.83333 79.5,2.16667 79.5,0.5C 84.5,0.5 89.5,0.5 94.5,0.5 Z"/></g>
<g><path style="opacity:1" fill="#4d246d" d="M 107.5,33.5 C 105.167,33.5 102.833,33.5 100.5,33.5C 97.0827,31.1529 95.7494,27.8196 96.5,23.5C 98.1667,23.5 99.8333,23.5 101.5,23.5C 101.5,25.1667 101.5,26.8333 101.5,28.5C 103.167,28.5 104.833,28.5 106.5,28.5C 106.662,26.4727 106.495,24.4727 106,22.5C 102.63,19.465 99.6298,16.1317 97,12.5C 95.8485,8.17124 96.6819,4.33791 99.5,1C 108.161,-1.49515 112.161,1.67152 111.5,10.5C 109.833,10.5 108.167,10.5 106.5,10.5C 106.739,8.5328 106.406,6.69946 105.5,5C 104.5,4.33333 103.5,4.33333 102.5,5C 101.409,7.06385 101.242,9.23052 102,11.5C 105.37,14.535 108.37,17.8683 111,21.5C 112.407,26.444 111.241,30.444 107.5,33.5 Z"/></g>
<g><path style="opacity:1" fill="#4d246d" d="M 150.5,0.5 C 153.85,0.334989 157.183,0.501655 160.5,1C 161.931,1.46524 163.097,2.29857 164,3.5C 164.972,9.21941 164.472,14.7194 162.5,20C 163.612,24.4957 164.612,28.9957 165.5,33.5C 163.833,33.5 162.167,33.5 160.5,33.5C 159.816,29.2765 158.816,25.1098 157.5,21C 157.164,19.9701 156.497,19.4701 155.5,19.5C 154.515,23.6344 154.182,27.9677 154.5,32.5C 153.167,32.5 151.833,32.5 150.5,32.5C 150.5,21.8333 150.5,11.1667 150.5,0.5 Z"/></g>
<g><path style="opacity:1" fill="#4b236b" d="M 198.5,0.5 C 198.5,2.16667 198.5,3.83333 198.5,5.5C 196.833,5.5 195.167,5.5 193.5,5.5C 193.5,14.8333 193.5,24.1667 193.5,33.5C 191.833,33.5 190.167,33.5 188.5,33.5C 188.5,24.1667 188.5,14.8333 188.5,5.5C 186.833,5.5 185.167,5.5 183.5,5.5C 183.5,3.83333 183.5,2.16667 183.5,0.5C 188.5,0.5 193.5,0.5 198.5,0.5 Z"/></g>
<g><path style="opacity:1" fill="#b21923" d="M 76.5,33.5 C 74.8333,33.5 73.1667,33.5 71.5,33.5C 71.5,33.1667 71.5,32.8333 71.5,32.5C 72.8333,32.5 74.1667,32.5 75.5,32.5C 75.5,22.1667 75.5,11.8333 75.5,1.5C 74.5,1.5 73.5,1.5 72.5,1.5C 72.8297,7.86818 72.4963,14.2015 71.5,20.5C 70.7025,20.0431 70.3691,19.3764 70.5,18.5C 71.4896,12.69 71.8229,6.68996 71.5,0.5C 73.1667,0.5 74.8333,0.5 76.5,0.5C 76.5,11.5 76.5,22.5 76.5,33.5 Z"/></g>
<g><path style="opacity:1" fill="#040503" d="M 155.5,5.5 C 156.833,5.5 158.167,5.5 159.5,5.5C 159.5,8.5 159.5,11.5 159.5,14.5C 158.167,14.5 156.833,14.5 155.5,14.5C 155.5,11.5 155.5,8.5 155.5,5.5 Z"/></g>
<g><path style="opacity:1" fill="#09070a" d="M 198.5,5.5 C 198.5,14.8333 198.5,24.1667 198.5,33.5C 196.833,33.5 195.167,33.5 193.5,33.5C 193.5,24.1667 193.5,14.8333 193.5,5.5C 195.167,5.5 196.833,5.5 198.5,5.5 Z"/></g>
<g><path style="opacity:1" fill="#cd1a27" d="M 11.5,33.5 C 9.16667,33.5 6.83333,33.5 4.5,33.5C 1.08274,31.1529 -0.250597,27.8196 0.5,23.5C 2.16667,23.5 3.83333,23.5 5.5,23.5C 4.83333,27.5 6.5,29.1667 10.5,28.5C 10.6621,26.4727 10.4955,24.4727 10,22.5C 6.62979,19.465 3.62979,16.1317 1,12.5C -0.151473,8.17124 0.681861,4.33791 3.5,1C 12.1607,-1.49515 16.1607,1.67152 15.5,10.5C 13.8333,10.5 12.1667,10.5 10.5,10.5C 10.7394,8.5328 10.4061,6.69946 9.5,5C 8.5,4.33333 7.5,4.33333 6.5,5C 5.20279,7.54459 5.36946,10.0446 7,12.5C 10.038,15.2026 12.7046,18.2026 15,21.5C 15.6667,24.5 15.6667,27.5 15,30.5C 13.8549,31.6364 12.6883,32.6364 11.5,33.5 Z"/></g>
<g><path style="opacity:1" fill="#ce1a27" d="M 44.5,0.5 C 48.5,0.5 52.5,0.5 56.5,0.5C 56.5,2.16667 56.5,3.83333 56.5,5.5C 54.1667,5.5 51.8333,5.5 49.5,5.5C 49.5,8.5 49.5,11.5 49.5,14.5C 51.5,14.5 53.5,14.5 55.5,14.5C 55.5,15.8333 55.5,17.1667 55.5,18.5C 53.5,18.5 51.5,18.5 49.5,18.5C 49.5,21.8333 49.5,25.1667 49.5,28.5C 51.2646,29.4614 53.2646,29.7947 55.5,29.5C 55.5,30.5 55.5,31.5 55.5,32.5C 51.8333,32.5 48.1667,32.5 44.5,32.5C 44.5,21.8333 44.5,11.1667 44.5,0.5 Z"/></g>
<g><path style="opacity:1" fill="#cc1a27" d="M 29.5,0.5 C 31.1667,0.5 32.8333,0.5 34.5,0.5C 34.5,9.83333 34.5,19.1667 34.5,28.5C 36.2646,29.4614 38.2646,29.7947 40.5,29.5C 40.5,30.5 40.5,31.5 40.5,32.5C 36.8333,32.5 33.1667,32.5 29.5,32.5C 29.5,21.8333 29.5,11.1667 29.5,0.5 Z"/></g>
<g><path style="opacity:1" fill="#291539" d="M 169.5,0.5 C 169.5,11.1667 169.5,21.8333 169.5,32.5C 173.167,32.5 176.833,32.5 180.5,32.5C 180.5,31.5 180.5,30.5 180.5,29.5C 178.265,29.7947 176.265,29.4614 174.5,28.5C 176.833,28.5 179.167,28.5 181.5,28.5C 181.5,30.1667 181.5,31.8333 181.5,33.5C 177.167,33.5 172.833,33.5 168.5,33.5C 168.172,22.3206 168.505,11.3206 169.5,0.5 Z"/></g>
<g><path style="opacity:1" fill="#4d246e" d="M 169.5,0.5 C 173.5,0.5 177.5,0.5 181.5,0.5C 181.5,2.16667 181.5,3.83333 181.5,5.5C 179.167,5.5 176.833,5.5 174.5,5.5C 174.5,8.5 174.5,11.5 174.5,14.5C 176.5,14.5 178.5,14.5 180.5,14.5C 180.5,15.8333 180.5,17.1667 180.5,18.5C 178.5,18.5 176.5,18.5 174.5,18.5C 174.5,21.8333 174.5,25.1667 174.5,28.5C 176.265,29.4614 178.265,29.7947 180.5,29.5C 180.5,30.5 180.5,31.5 180.5,32.5C 176.833,32.5 173.167,32.5 169.5,32.5C 169.5,21.8333 169.5,11.1667 169.5,0.5 Z"/></g>
<g><path style="opacity:1" fill="#4d246d" d="M 127.5,33.5 C 123.5,33.5 119.5,33.5 115.5,33.5C 115.5,22.5 115.5,11.5 115.5,0.5C 119.5,0.5 123.5,0.5 127.5,0.5C 127.5,2.16667 127.5,3.83333 127.5,5.5C 125.167,5.5 122.833,5.5 120.5,5.5C 120.5,8.5 120.5,11.5 120.5,14.5C 122.5,14.5 124.5,14.5 126.5,14.5C 126.5,15.8333 126.5,17.1667 126.5,18.5C 124.5,18.5 122.5,18.5 120.5,18.5C 120.5,21.8333 120.5,25.1667 120.5,28.5C 122.833,28.5 125.167,28.5 127.5,28.5C 127.5,30.1667 127.5,31.8333 127.5,33.5 Z"/></g>
<g><path style="opacity:1" fill="#301844" d="M 150.5,0.5 C 150.5,11.1667 150.5,21.8333 150.5,32.5C 151.833,32.5 153.167,32.5 154.5,32.5C 154.182,27.9677 154.515,23.6344 155.5,19.5C 155.5,24.1667 155.5,28.8333 155.5,33.5C 153.5,33.5 151.5,33.5 149.5,33.5C 149.172,22.3206 149.505,11.3206 150.5,0.5 Z"/></g>
<g><path style="opacity:1" fill="#140806" d="M 66.5,18.5 C 68.1667,23.1667 69.8333,27.8333 71.5,32.5C 71.5,32.8333 71.5,33.1667 71.5,33.5C 69.5,33.5 67.5,33.5 65.5,33.5C 65.1795,28.3054 65.5128,23.3054 66.5,18.5 Z"/></g>
<g><path style="opacity:1" fill="#380b0d" d="M 66.5,18.5 C 65.5128,23.3054 65.1795,28.3054 65.5,33.5C 65.1667,33.5 64.8333,33.5 64.5,33.5C 64.5,33.1667 64.5,32.8333 64.5,32.5C 64.3338,26.1579 64.5005,19.8246 65,13.5C 65.6077,15.1545 66.1077,16.8211 66.5,18.5 Z"/></g>
<g><path style="opacity:1" fill="#080609" d="M 155.5,19.5 C 156.497,19.4701 157.164,19.9701 157.5,21C 158.816,25.1098 159.816,29.2765 160.5,33.5C 158.833,33.5 157.167,33.5 155.5,33.5C 155.5,28.8333 155.5,24.1667 155.5,19.5 Z"/></g>
<g><path style="opacity:1" fill="#d41b28" d="M 65.5,1.5 C 67.7389,6.89433 69.4055,12.561 70.5,18.5C 70.3691,19.3764 70.7025,20.0431 71.5,20.5C 72.4963,14.2015 72.8297,7.86818 72.5,1.5C 73.5,1.5 74.5,1.5 75.5,1.5C 75.5,11.8333 75.5,22.1667 75.5,32.5C 74.1667,32.5 72.8333,32.5 71.5,32.5C 69.8333,27.8333 68.1667,23.1667 66.5,18.5C 66.1077,16.8211 65.6077,15.1545 65,13.5C 64.5005,19.8246 64.3338,26.1579 64.5,32.5C 63.1667,32.5 61.8333,32.5 60.5,32.5C 60.5,22.1667 60.5,11.8333 60.5,1.5C 62.1667,1.5 63.8333,1.5 65.5,1.5 Z"/></g>
<g><path style="opacity:1" fill="#4a2369" d="M 141.5,0.5 C 145.858,3.23256 147.525,7.23256 146.5,12.5C 144.833,12.5 143.167,12.5 141.5,12.5C 141.663,10.1432 141.497,7.80982 141,5.5C 139.062,4.13983 137.396,4.47316 136,6.5C 135.188,13.7471 135.354,20.9138 136.5,28C 140.925,28.9558 142.592,27.1225 141.5,22.5C 143.167,22.5 144.833,22.5 146.5,22.5C 147.113,26.9288 145.78,30.5954 142.5,33.5C 139.833,33.5 137.167,33.5 134.5,33.5C 132.73,31.8867 131.564,29.8867 131,27.5C 130.333,20.1667 130.333,12.8333 131,5.5C 133.061,1.01857 136.561,-0.648101 141.5,0.5 Z"/></g>
<g><path style="opacity:1" fill="#741218" d="M 44.5,0.5 C 44.5,11.1667 44.5,21.8333 44.5,32.5C 48.1667,32.5 51.8333,32.5 55.5,32.5C 55.5,31.5 55.5,30.5 55.5,29.5C 53.2646,29.7947 51.2646,29.4614 49.5,28.5C 51.8333,28.5 54.1667,28.5 56.5,28.5C 56.5,30.1667 56.5,31.8333 56.5,33.5C 52.1667,33.5 47.8333,33.5 43.5,33.5C 43.1721,22.3206 43.5054,11.3206 44.5,0.5 Z"/></g>
</svg>
